<?xml version="1.0" standalone="no"?>
<!DOCTYPE svg PUBLIC "-//W3C//DTD SVG 20010904//EN"
 "http://www.w3.org/TR/2001/REC-SVG-20010904/DTD/svg10.dtd">
<svg version="1.0" xmlns="http://www.w3.org/2000/svg"
 width="260.000000pt" height="260.000000pt" viewBox="0 0 260.000000 260.000000"
 preserveAspectRatio="xMidYMid meet">
<metadata>
Created by potrace 1.11, written by Peter Selinger 2001-2013
</metadata>
<g transform="translate(0.000000,260.000000) scale(0.100000,-0.100000)"
fill="#000000" stroke="none">
<path d="M1455 2110 c-21 -21 -38 -30 -62 -30 -37 0 -40 -6 -17 -38 15 -22 14
-43 -2 -87 -6 -15 -1 -16 37 -10 37 6 47 3 63 -14 27 -30 36 -26 36 13 0 27 7
40 32 60 18 14 30 26 28 28 -3 2 -18 10 -35 18 -20 11 -33 27 -40 53 l-11 38
-29 -31z"/>
<path d="M1050 2094 c-9 -26 -21 -40 -47 -51 l-36 -14 37 -30 c29 -24 36 -37
36 -65 l0 -35 29 22 c23 17 38 20 65 16 l36 -6 -6 39 c-5 28 -2 47 10 64 22
34 21 36 -19 36 -27 0 -39 7 -57 30 -12 17 -25 30 -29 30 -4 0 -13 -16 -19
-36z"/>
<path d="M1801 1969 c-31 -19 -36 -19 -72 -5 -42 17 -43 16 -30 -30 7 -26 5
-36 -15 -60 -31 -39 -30 -44 11 -44 30 0 39 -5 56 -35 12 -19 23 -35 25 -35 2
0 12 17 21 38 15 30 24 38 51 40 39 4 40 11 6 43 -22 21 -25 29 -19 66 3 24 5
43 3 43 -2 0 -18 -9 -37 -21z"/>
<path d="M715 1942 c5 -32 2 -41 -19 -62 -15 -13 -26 -27 -26 -31 0 -4 17 -11
37 -16 30 -7 39 -15 47 -41 11 -41 19 -40 45 3 16 28 27 35 51 35 35 0 38 10
10 35 -17 16 -20 26 -14 63 6 42 5 45 -12 37 -40 -16 -53 -16 -82 -1 -43 22
-45 21 -37 -22z"/>
<path d="M1266 1883 c-3 -3 -6 -59 -6 -124 0 -65 -4 -120 -9 -124 -11 -6 -154
-25 -159 -21 -2 2 7 32 18 67 37 109 8 160 -92 158 l-43 0 51 -23 c74 -34 82
-70 35 -162 -26 -50 -34 -58 -85 -79 -144 -59 -300 -182 -392 -311 -53 -74
-59 -106 -8 -37 60 79 175 191 244 236 79 52 160 90 160 76 0 -15 -28 -67 -73
-134 -59 -88 -130 -229 -163 -320 -25 -71 -28 -94 -29 -200 0 -111 2 -124 27
-175 31 -64 80 -125 111 -141 20 -10 19 -8 -4 17 -99 109 -133 261 -93 423 30
126 252 533 305 561 24 14 164 31 184 24 13 -5 15 -23 13 -98 l-3 -91 -63 4
c-61 3 -64 2 -97 -34 -28 -29 -35 -45 -35 -76 0 -52 11 -71 81 -146 33 -34 59
-66 59 -72 0 -27 -42 -7 -77 36 -60 74 -79 92 -107 99 -33 8 -67 -1 -97 -25
-22 -18 -24 -27 -25 -128 -1 -59 -5 -127 -9 -150 -16 -98 83 -163 179 -118 18
9 61 45 96 81 35 35 68 63 74 61 17 -5 19 -93 5 -186 l-13 -84 33 -29 c31 -27
56 -33 56 -12 -1 5 -4 54 -9 109 -8 108 2 178 29 189 8 3 42 -18 82 -51 70
-57 117 -83 153 -83 54 0 120 65 120 118 0 12 -9 41 -20 63 -18 35 -20 51 -14
123 8 97 -1 121 -52 142 -32 13 -39 13 -78 -5 -29 -12 -58 -38 -85 -72 -55
-72 -72 -89 -82 -83 -15 9 -10 21 32 70 81 97 95 152 58 214 -33 54 -47 61
-107 55 l-53 -5 3 92 3 93 77 -3 c127 -6 120 0 225 -167 110 -177 197 -349
212 -423 34 -165 -5 -306 -118 -426 -49 -52 -52 -57 -23 -40 88 50 165 177
178 291 8 75 -8 187 -37 264 -35 92 -139 294 -205 397 -20 30 -33 56 -31 59 8
7 114 -44 174 -85 32 -22 84 -65 115 -95 54 -53 152 -175 161 -200 2 -7 7 -9
11 -6 9 8 -43 95 -102 172 -81 103 -238 212 -359 248 -33 9 -48 21 -67 53 -37
63 -46 107 -30 144 7 18 14 32 16 32 2 0 21 7 43 15 l40 14 -43 1 c-35 0 -49
-6 -73 -29 -36 -37 -38 -77 -4 -148 l24 -53 -62 6 c-34 3 -73 7 -87 9 -14 2
-28 4 -32 4 -5 1 -8 57 -8 125 0 114 -6 147 -24 129z m43 -635 c12 -34 21 -66
21 -70 0 -14 -28 -9 -34 7 -3 8 -14 15 -24 15 -11 0 -25 -7 -32 -15 -18 -22
-44 -20 -35 3 4 9 16 41 27 70 29 73 50 70 77 -10z m270 -194 c12 -15 21 -37
21 -49 0 -35 -37 -75 -70 -75 -33 0 -70 40 -70 75 0 12 9 34 21 49 28 35 70
35 98 0z m-501 -61 c2 -60 0 -73 -13 -73 -12 0 -15 12 -15 55 0 48 -3 55 -19
55 -17 0 -20 -8 -23 -52 -2 -39 -7 -53 -18 -53 -11 0 -16 15 -18 59 -4 83 -1
88 55 84 l48 -3 3 -72z"/>
<path d="M1512 1038 c-28 -28 -2 -88 33 -74 27 10 14 86 -15 86 -3 0 -11 -5
-18 -12z"/>
<path d="M549 1724 c-20 -22 -30 -25 -62 -21 -36 5 -38 4 -32 -16 10 -29 10
-76 0 -106 -6 -19 -5 -23 6 -19 49 19 58 18 87 -7 16 -14 32 -25 35 -25 3 0 7
14 9 32 2 23 12 38 36 54 l32 22 -35 22 c-19 12 -36 30 -36 41 -4 51 -10 55
-40 23z"/>
<path d="M1974 1714 c-5 -29 -13 -39 -43 -51 l-36 -15 38 -30 c30 -24 37 -37
37 -64 0 -41 9 -42 41 -8 21 22 30 25 66 20 l42 -6 -16 35 c-14 30 -15 38 -3
62 8 16 16 31 18 36 2 4 -17 7 -41 7 -37 0 -49 5 -65 25 -26 33 -30 32 -38
-11z"/>
<path d="M1107 512 c-21 -23 -22 -33 -2 -26 12 5 15 -3 15 -35 0 -23 5 -41 10
-41 6 0 10 27 10 60 0 63 -7 71 -33 42z"/>
<path d="M1184 516 c-10 -25 0 -51 24 -61 27 -12 29 -27 4 -23 -11 2 -20 -1
-20 -7 -1 -5 10 -10 25 -10 57 0 57 107 0 113 -17 2 -29 -2 -33 -12z m44 -23
c-4 -22 -22 -20 -26 1 -2 10 3 16 13 16 10 0 15 -7 13 -17z"/>
<path d="M1292 518 c-14 -14 -16 -76 -3 -96 4 -8 19 -12 32 -10 46 6 48 118 1
118 -10 0 -23 -5 -30 -12z m38 -49 c0 -28 -4 -39 -12 -37 -24 8 -22 78 2 78 5
0 10 -18 10 -41z"/>
<path d="M1388 523 c-3 -4 -4 -30 -4 -58 1 -47 3 -50 28 -53 27 -3 56 27 40
42 -3 4 -6 21 -7 39 0 27 -4 32 -27 35 -14 2 -28 0 -30 -5z m37 -33 c-5 -8
-11 -8 -17 -2 -6 6 -7 16 -3 22 5 8 11 8 17 2 6 -6 7 -16 3 -22z m8 -45 c1 -5
-6 -11 -15 -13 -11 -2 -18 3 -18 13 0 17 30 18 33 0z"/>
</g>
</svg>
